<mxfile host="app.diagrams.net" modified="2021-06-12T07:15:43.901Z" agent="5.0 (Windows NT 10.0; Win64; x64) AppleWebKit/537.36 (KHTML, like Gecko) Chrome/91.0.4472.101 Safari/537.36" etag="ieg_B5doJnlWrTewzrXd" version="14.7.7" type="github">
  <diagram id="JTO8keWf2yWEtYkkjwrm" name="Page-1">
    <mxGraphModel dx="849" dy="1590" grid="1" gridSize="10" guides="1" tooltips="1" connect="1" arrows="1" fold="1" page="1" pageScale="1" pageWidth="850" pageHeight="1100" math="0" shadow="0">
      <root>
        <mxCell id="0" />
        <mxCell id="1" parent="0" />
        <mxCell id="Q-kc4Sg5_urtsn6Ku7JY-1" value="client&amp;nbsp;&lt;br&gt;Applicatoin" style="whiteSpace=wrap;html=1;aspect=fixed;" vertex="1" parent="1">
          <mxGeometry x="40" y="160" width="80" height="80" as="geometry" />
        </mxCell>
        <mxCell id="Q-kc4Sg5_urtsn6Ku7JY-2" value="Spring&amp;nbsp;" style="rhombus;whiteSpace=wrap;html=1;" vertex="1" parent="1">
          <mxGeometry x="200" y="160" width="80" height="80" as="geometry" />
        </mxCell>
        <mxCell id="Q-kc4Sg5_urtsn6Ku7JY-4" value="" style="endArrow=classic;startArrow=classic;html=1;entryX=0;entryY=0.5;entryDx=0;entryDy=0;exitX=1;exitY=0.5;exitDx=0;exitDy=0;" edge="1" parent="1" source="Q-kc4Sg5_urtsn6Ku7JY-1" target="Q-kc4Sg5_urtsn6Ku7JY-2">
          <mxGeometry width="50" height="50" relative="1" as="geometry">
            <mxPoint x="400" y="270" as="sourcePoint" />
            <mxPoint x="450" y="220" as="targetPoint" />
            <Array as="points">
              <mxPoint x="120" y="200" />
            </Array>
          </mxGeometry>
        </mxCell>
        <mxCell id="Q-kc4Sg5_urtsn6Ku7JY-5" value="" style="endArrow=classic;startArrow=classic;html=1;entryX=1;entryY=0.5;entryDx=0;entryDy=0;exitX=0;exitY=0.5;exitDx=0;exitDy=0;" edge="1" parent="1" target="Q-kc4Sg5_urtsn6Ku7JY-2">
          <mxGeometry width="50" height="50" relative="1" as="geometry">
            <mxPoint x="360" y="200" as="sourcePoint" />
            <mxPoint x="450" y="220" as="targetPoint" />
          </mxGeometry>
        </mxCell>
        <mxCell id="Q-kc4Sg5_urtsn6Ku7JY-8" value="&lt;span&gt;Api Gateway&lt;/span&gt;" style="text;html=1;align=center;verticalAlign=middle;resizable=0;points=[];autosize=1;strokeColor=none;" vertex="1" parent="1">
          <mxGeometry x="200" y="140" width="80" height="20" as="geometry" />
        </mxCell>
        <mxCell id="Q-kc4Sg5_urtsn6Ku7JY-13" value="" style="rounded=1;whiteSpace=wrap;html=1;" vertex="1" parent="1">
          <mxGeometry x="510" y="-110" width="450" height="130" as="geometry" />
        </mxCell>
        <mxCell id="Q-kc4Sg5_urtsn6Ku7JY-6" value="" style="whiteSpace=wrap;html=1;aspect=fixed;" vertex="1" parent="1">
          <mxGeometry x="490" y="-60" width="40" height="40" as="geometry" />
        </mxCell>
        <mxCell id="Q-kc4Sg5_urtsn6Ku7JY-7" value="User Comman APIs" style="text;html=1;align=center;verticalAlign=middle;resizable=0;points=[];autosize=1;strokeColor=none;" vertex="1" parent="1">
          <mxGeometry x="450" y="-80" width="120" height="20" as="geometry" />
        </mxCell>
        <mxCell id="Q-kc4Sg5_urtsn6Ku7JY-14" value="" style="rounded=1;whiteSpace=wrap;html=1;" vertex="1" parent="1">
          <mxGeometry x="510" y="30" width="450" height="100" as="geometry" />
        </mxCell>
        <mxCell id="Q-kc4Sg5_urtsn6Ku7JY-11" value="User Query APIs" style="text;html=1;align=center;verticalAlign=middle;resizable=0;points=[];autosize=1;strokeColor=none;" vertex="1" parent="1">
          <mxGeometry x="450" y="40" width="100" height="20" as="geometry" />
        </mxCell>
        <mxCell id="Q-kc4Sg5_urtsn6Ku7JY-9" value="" style="whiteSpace=wrap;html=1;aspect=fixed;" vertex="1" parent="1">
          <mxGeometry x="490" y="60" width="40" height="40" as="geometry" />
        </mxCell>
        <mxCell id="Q-kc4Sg5_urtsn6Ku7JY-16" value="command&lt;br&gt;Handler" style="shape=process;whiteSpace=wrap;html=1;backgroundOutline=1;" vertex="1" parent="1">
          <mxGeometry x="560" y="-60" width="100" height="40" as="geometry" />
        </mxCell>
        <mxCell id="Q-kc4Sg5_urtsn6Ku7JY-17" value="Query Handler&lt;br&gt;" style="shape=process;whiteSpace=wrap;html=1;backgroundOutline=1;" vertex="1" parent="1">
          <mxGeometry x="560" y="60" width="100" height="40" as="geometry" />
        </mxCell>
        <mxCell id="Q-kc4Sg5_urtsn6Ku7JY-18" value="" style="shape=cylinder3;whiteSpace=wrap;html=1;boundedLbl=1;backgroundOutline=1;size=15;" vertex="1" parent="1">
          <mxGeometry x="710" y="60" width="50" height="50" as="geometry" />
        </mxCell>
        <mxCell id="Q-kc4Sg5_urtsn6Ku7JY-19" value="" style="shape=cylinder3;whiteSpace=wrap;html=1;boundedLbl=1;backgroundOutline=1;size=15;" vertex="1" parent="1">
          <mxGeometry x="860" y="-65" width="50" height="50" as="geometry" />
        </mxCell>
        <mxCell id="Q-kc4Sg5_urtsn6Ku7JY-20" value="" style="whiteSpace=wrap;html=1;aspect=fixed;" vertex="1" parent="1">
          <mxGeometry x="720" y="-60" width="45" height="45" as="geometry" />
        </mxCell>
        <mxCell id="Q-kc4Sg5_urtsn6Ku7JY-21" value="" style="shape=display;whiteSpace=wrap;html=1;" vertex="1" parent="1">
          <mxGeometry x="360" y="180" width="80" height="40" as="geometry" />
        </mxCell>
        <mxCell id="Q-kc4Sg5_urtsn6Ku7JY-22" value="Oauth2 service&lt;br&gt;" style="text;html=1;align=center;verticalAlign=middle;resizable=0;points=[];autosize=1;strokeColor=none;" vertex="1" parent="1">
          <mxGeometry x="380" y="150" width="100" height="20" as="geometry" />
        </mxCell>
        <mxCell id="Q-kc4Sg5_urtsn6Ku7JY-24" value="Event Handler" style="shape=process;whiteSpace=wrap;html=1;backgroundOutline=1;" vertex="1" parent="1">
          <mxGeometry x="850" y="60" width="100" height="40" as="geometry" />
        </mxCell>
        <mxCell id="Q-kc4Sg5_urtsn6Ku7JY-25" value="" style="endArrow=classic;startArrow=classic;html=1;exitX=0.525;exitY=1.15;exitDx=0;exitDy=0;exitPerimeter=0;entryX=0;entryY=0.5;entryDx=0;entryDy=0;" edge="1" parent="1" source="Q-kc4Sg5_urtsn6Ku7JY-8" target="Q-kc4Sg5_urtsn6Ku7JY-6">
          <mxGeometry width="50" height="50" relative="1" as="geometry">
            <mxPoint x="610" y="150" as="sourcePoint" />
            <mxPoint x="660" y="100" as="targetPoint" />
          </mxGeometry>
        </mxCell>
        <mxCell id="Q-kc4Sg5_urtsn6Ku7JY-27" value="" style="endArrow=classic;startArrow=classic;html=1;exitX=1;exitY=0;exitDx=0;exitDy=0;entryX=0;entryY=0.5;entryDx=0;entryDy=0;entryPerimeter=0;" edge="1" parent="1" source="Q-kc4Sg5_urtsn6Ku7JY-2" target="Q-kc4Sg5_urtsn6Ku7JY-9">
          <mxGeometry width="50" height="50" relative="1" as="geometry">
            <mxPoint x="610" y="150" as="sourcePoint" />
            <mxPoint x="660" y="100" as="targetPoint" />
          </mxGeometry>
        </mxCell>
        <mxCell id="Q-kc4Sg5_urtsn6Ku7JY-28" value="" style="endArrow=classic;startArrow=classic;html=1;exitX=0;exitY=0.5;exitDx=0;exitDy=0;entryX=1;entryY=0.5;entryDx=0;entryDy=0;" edge="1" parent="1" source="Q-kc4Sg5_urtsn6Ku7JY-17" target="Q-kc4Sg5_urtsn6Ku7JY-9">
          <mxGeometry width="50" height="50" relative="1" as="geometry">
            <mxPoint x="610" y="150" as="sourcePoint" />
            <mxPoint x="540" y="80" as="targetPoint" />
          </mxGeometry>
        </mxCell>
        <mxCell id="Q-kc4Sg5_urtsn6Ku7JY-32" value="Domain Model" style="text;html=1;align=center;verticalAlign=middle;resizable=0;points=[];autosize=1;strokeColor=none;" vertex="1" parent="1">
          <mxGeometry x="690" y="-80" width="90" height="20" as="geometry" />
        </mxCell>
        <mxCell id="Q-kc4Sg5_urtsn6Ku7JY-34" value="" style="endArrow=classic;html=1;exitX=1;exitY=0.5;exitDx=0;exitDy=0;entryX=0;entryY=0.5;entryDx=0;entryDy=0;" edge="1" parent="1" source="Q-kc4Sg5_urtsn6Ku7JY-6" target="Q-kc4Sg5_urtsn6Ku7JY-16">
          <mxGeometry width="50" height="50" relative="1" as="geometry">
            <mxPoint x="610" y="150" as="sourcePoint" />
            <mxPoint x="660" y="100" as="targetPoint" />
          </mxGeometry>
        </mxCell>
        <mxCell id="Q-kc4Sg5_urtsn6Ku7JY-35" value="" style="endArrow=classic;html=1;exitX=1;exitY=0.5;exitDx=0;exitDy=0;" edge="1" parent="1" source="Q-kc4Sg5_urtsn6Ku7JY-16" target="Q-kc4Sg5_urtsn6Ku7JY-20">
          <mxGeometry width="50" height="50" relative="1" as="geometry">
            <mxPoint x="610" y="150" as="sourcePoint" />
            <mxPoint x="660" y="100" as="targetPoint" />
          </mxGeometry>
        </mxCell>
        <mxCell id="Q-kc4Sg5_urtsn6Ku7JY-36" value="" style="endArrow=classic;startArrow=classic;html=1;entryX=0;entryY=0.5;entryDx=0;entryDy=0;entryPerimeter=0;exitX=1;exitY=0.5;exitDx=0;exitDy=0;" edge="1" parent="1" source="Q-kc4Sg5_urtsn6Ku7JY-20" target="Q-kc4Sg5_urtsn6Ku7JY-19">
          <mxGeometry width="50" height="50" relative="1" as="geometry">
            <mxPoint x="610" y="150" as="sourcePoint" />
            <mxPoint x="660" y="100" as="targetPoint" />
          </mxGeometry>
        </mxCell>
        <mxCell id="Q-kc4Sg5_urtsn6Ku7JY-37" value="Event Store/Write Databse" style="text;html=1;align=center;verticalAlign=middle;resizable=0;points=[];autosize=1;strokeColor=none;" vertex="1" parent="1">
          <mxGeometry x="805" y="-20" width="160" height="20" as="geometry" />
        </mxCell>
        <mxCell id="Q-kc4Sg5_urtsn6Ku7JY-38" value="Event Handler" style="rounded=1;whiteSpace=wrap;html=1;" vertex="1" parent="1">
          <mxGeometry x="657.5" y="10" width="170" height="40" as="geometry" />
        </mxCell>
        <mxCell id="Q-kc4Sg5_urtsn6Ku7JY-39" value="" style="endArrow=classic;html=1;exitX=0.5;exitY=1;exitDx=0;exitDy=0;entryX=0.5;entryY=0;entryDx=0;entryDy=0;" edge="1" parent="1" source="Q-kc4Sg5_urtsn6Ku7JY-20" target="Q-kc4Sg5_urtsn6Ku7JY-38">
          <mxGeometry width="50" height="50" relative="1" as="geometry">
            <mxPoint x="610" y="150" as="sourcePoint" />
            <mxPoint x="660" y="100" as="targetPoint" />
          </mxGeometry>
        </mxCell>
        <mxCell id="Q-kc4Sg5_urtsn6Ku7JY-40" value="Events" style="text;html=1;align=center;verticalAlign=middle;resizable=0;points=[];autosize=1;strokeColor=none;" vertex="1" parent="1">
          <mxGeometry x="690" y="-10" width="50" height="20" as="geometry" />
        </mxCell>
        <mxCell id="Q-kc4Sg5_urtsn6Ku7JY-41" value="" style="endArrow=classic;html=1;entryX=0.5;entryY=0;entryDx=0;entryDy=0;exitX=1;exitY=0.75;exitDx=0;exitDy=0;" edge="1" parent="1" source="Q-kc4Sg5_urtsn6Ku7JY-38" target="Q-kc4Sg5_urtsn6Ku7JY-24">
          <mxGeometry width="50" height="50" relative="1" as="geometry">
            <mxPoint x="610" y="150" as="sourcePoint" />
            <mxPoint x="660" y="100" as="targetPoint" />
            <Array as="points">
              <mxPoint x="900" y="40" />
            </Array>
          </mxGeometry>
        </mxCell>
        <mxCell id="Q-kc4Sg5_urtsn6Ku7JY-42" value="User Read DB" style="text;html=1;align=center;verticalAlign=middle;resizable=0;points=[];autosize=1;strokeColor=none;" vertex="1" parent="1">
          <mxGeometry x="690" y="110" width="90" height="20" as="geometry" />
        </mxCell>
        <mxCell id="Q-kc4Sg5_urtsn6Ku7JY-43" value="" style="endArrow=classic;html=1;exitX=0;exitY=0.5;exitDx=0;exitDy=0;entryX=1;entryY=0;entryDx=0;entryDy=20;entryPerimeter=0;" edge="1" parent="1" source="Q-kc4Sg5_urtsn6Ku7JY-24" target="Q-kc4Sg5_urtsn6Ku7JY-18">
          <mxGeometry width="50" height="50" relative="1" as="geometry">
            <mxPoint x="610" y="150" as="sourcePoint" />
            <mxPoint x="660" y="100" as="targetPoint" />
          </mxGeometry>
        </mxCell>
        <mxCell id="Q-kc4Sg5_urtsn6Ku7JY-44" value="Update read &lt;br&gt;DB" style="text;html=1;align=center;verticalAlign=middle;resizable=0;points=[];autosize=1;strokeColor=none;" vertex="1" parent="1">
          <mxGeometry x="765" y="80" width="80" height="30" as="geometry" />
        </mxCell>
        <mxCell id="Q-kc4Sg5_urtsn6Ku7JY-47" value="" style="endArrow=classic;html=1;entryX=0;entryY=0;entryDx=0;entryDy=20;entryPerimeter=0;exitX=1;exitY=0.5;exitDx=0;exitDy=0;" edge="1" parent="1" source="Q-kc4Sg5_urtsn6Ku7JY-17" target="Q-kc4Sg5_urtsn6Ku7JY-18">
          <mxGeometry width="50" height="50" relative="1" as="geometry">
            <mxPoint x="610" y="140" as="sourcePoint" />
            <mxPoint x="660" y="90" as="targetPoint" />
          </mxGeometry>
        </mxCell>
      </root>
    </mxGraphModel>
  </diagram>
</mxfile>
